<?xml version="1.0" standalone="no"?><!DOCTYPE svg PUBLIC "-//W3C//DTD SVG 1.1//EN" "http://www.w3.org/Graphics/SVG/1.1/DTD/svg11.dtd">
<svg t="1525511964133" class="icon" style="" viewBox="0 0 2254 1024" version="1.1"
     xmlns="http://www.w3.org/2000/svg" p-id="3697" xmlns:xlink="http://www.w3.org/1999/xlink"
     width="440.234375" height="200">
    <path  d="
        M60.17012879 495.38278906
        l95.90504436-84.03560812
        c9.49554937-9.49554937 18.04154344-18.04154344 18.0415425-31.33531125L174.11671565 127.90504437c0-52.70029687 43.2047475-95.90504438 95.90504438-95.90504436L2069.42828879 32C2122.12858565 32.47477719 2165.33333314 75.67952562 2165.33333314 128.37982156L2165.33333315 896.09495564C2165.33333315 948.7952525 2122.12858565 992 2069.42828879 992l-1799.88130596 0c-52.70029687 0-95.90504438-43.2047475-95.90504437-95.90504438l0-252.10682531c0-13.29376875-8.54599406-21.36498563-18.04154343-F1.33531125l-95.90504438-84.03560812c-9.02077125-8.07121688-9.02077125-23.7388725 0.47477814-33.23442188z" p-id="3698" style="fill:#e7e7e7 ;stroke:#ddd;stroke-width:2"></path>



</svg>